<?xml version="1.0" encoding="UTF-8"?>
<svg width="300" height="300" viewBox="0 0 300 300" fill="none" xmlns="http://www.w3.org/2000/svg">
  <!-- Cuerpo principal del robot -->
  <rect x="75" y="100" width="150" height="140" rx="15" fill="#1F429F" />
  
  <!-- Cabeza del robot -->
  <rect x="100" y="50" width="100" height="80" rx="10" fill="#3563bd" />
  
  <!-- Ojos -->
  <circle cx="130" cy="80" r="15" fill="white" />
  <circle cx="170" cy="80" r="15" fill="white" />
  <circle cx="130" cy="80" r="8" fill="#4a8efa" />
  <circle cx="170" cy="80" r="8" fill="#4a8efa" />
  <circle cx="133" cy="77" r="3" fill="white" />
  <circle cx="173" cy="77" r="3" fill="white" />
  
  <!-- Antenas -->
  <rect x="120" y="35" width="5" height="15" fill="#4a8efa" />
  <rect x="175" y="35" width="5" height="15" fill="#4a8efa" />
  <circle cx="122.5" cy="30" r="5" fill="#63a4ff" />
  <circle cx="177.5" cy="30" r="5" fill="#63a4ff" />
  
  <!-- Boca confundida -->
  <path d="M125 105 Q150 95 175 105" stroke="white" stroke-width="3" fill="none" />
  
  <!-- Brazos -->
  <rect x="50" y="130" width="25" height="10" rx="5" fill="#3563bd" />
  <rect x="225" y="130" width="25" height="10" rx="5" fill="#3563bd" />
  
  <!-- Piernas -->
  <rect x="100" y="240" width="20" height="30" rx="5" fill="#3563bd" />
  <rect x="180" y="240" width="20" height="30" rx="5" fill="#3563bd" />
  
  <!-- Panel de control en el pecho -->
  <rect x="110" y="150" width="80" height="40" rx="5" fill="#63a4ff" />
  <circle cx="130" cy="170" r="10" fill="white" />
  <circle cx="170" cy="170" r="10" fill="white" />
  <rect x="145" y="165" width="10" height="10" fill="white" />
  
  <!-- Signo de interrogación -->
  <text x="150" y="130" font-size="40" text-anchor="middle" fill="white" font-family="Arial, sans-serif" font-weight="bold">?</text>
</svg>
