<svg width="355" height="159" viewBox="0 0 355 159" fill="none" xmlns="http://www.w3.org/2000/svg">
<path d="M95.7001 43.19C94.4301 43.19 93.3501 42.74 92.4501 41.84C91.5501 40.94 91.1001 39.82 91.1001 38.49C91.1001 36.96 91.5801 35.81 92.5501 35.04C93.5201 34.27 94.6001 33.89 95.8001 33.89C96.9301 33.89 97.9801 34.27 98.9501 35.04C99.9201 35.81 100.4 36.96 100.4 38.49C100.4 39.82 99.9501 40.94 99.0501 41.84C98.1501 42.74 97.0301 43.19 95.7001 43.19ZM95.8001 109.39C94.9301 109.39 94.2201 109.11 93.6501 108.54C93.0801 107.97 92.8001 107.26 92.8001 106.39V57.69C92.8001 56.76 93.0801 56.02 93.6501 55.49C94.2201 54.96 94.9301 54.69 95.8001 54.69C96.7301 54.69 97.4701 54.96 98.0001 55.49C98.5301 56.03 98.8001 56.76 98.8001 57.69V106.39C98.8001 107.26 98.5301 107.97 98.0001 108.54C97.4701 109.11 96.7301 109.39 95.8001 109.39Z" fill="#9DCDFB"/>
<path d="M121.8 109.39C120.93 109.39 120.22 109.11 119.65 108.54C119.08 107.97 118.8 107.26 118.8 106.39V57.69C118.8 56.76 119.08 56.02 119.65 55.49C120.22 54.96 120.93 54.69 121.8 54.69C122.73 54.69 123.47 54.96 124 55.49C124.53 56.03 124.8 56.76 124.8 57.69V106.39C124.8 107.26 124.53 107.97 124 108.54C123.47 109.11 122.73 109.39 121.8 109.39ZM158.1 109.39C157.23 109.39 156.52 109.11 155.95 108.54C155.38 107.97 155.1 107.26 155.1 106.39V77.49C155.1 72.36 153.75 68.16 151.05 64.89C148.35 61.62 144.83 59.99 140.5 59.99C135.9 59.99 132.13 61.46 129.2 64.39C126.27 67.32 124.8 71.12 124.8 75.79H119.8C120 71.52 121.02 67.76 122.85 64.49C124.68 61.22 127.13 58.66 130.2 56.79C133.27 54.92 136.7 53.99 140.5 53.99C144.56 53.99 148.13 54.99 151.2 56.99C154.27 58.99 156.68 61.76 158.45 65.29C160.22 68.82 161.1 72.89 161.1 77.49V106.39C161.1 107.26 160.83 107.97 160.3 108.54C159.77 109.11 159.03 109.39 158.1 109.39ZM194.1 109.39C193.23 109.39 192.52 109.11 191.95 108.54C191.38 107.97 191.1 107.26 191.1 106.39V77.49C191.1 72.36 189.75 68.16 187.05 64.89C184.35 61.62 180.83 59.99 176.5 59.99C171.9 59.99 168.15 61.51 165.25 64.54C162.35 67.57 160.96 71.66 161.1 76.79H155.1C155.23 72.19 156.23 68.19 158.1 64.79C159.97 61.39 162.5 58.74 165.7 56.84C168.9 54.94 172.5 53.99 176.5 53.99C180.5 53.99 184.13 54.99 187.2 56.99C190.27 58.99 192.68 61.76 194.45 65.29C196.22 68.82 197.1 72.89 197.1 77.49V106.39C197.1 107.26 196.83 107.97 196.3 108.54C195.77 109.11 195.03 109.39 194.1 109.39Z" fill="#9DCDFB"/>
<path d="M239.1 109.99C233.77 109.99 228.98 108.78 224.75 106.34C220.52 103.91 217.18 100.57 214.75 96.34C212.32 92.11 211.1 87.36 211.1 82.09C211.1 76.82 212.32 71.97 214.75 67.74C217.18 63.51 220.52 60.17 224.75 57.74C228.98 55.31 233.77 54.09 239.1 54.09C244.43 54.09 249.2 55.31 253.4 57.74C257.6 60.17 260.92 63.51 263.35 67.74C265.78 71.97 267 76.76 267 82.09L264.5 86.09C264.5 90.62 263.38 94.69 261.15 98.29C258.92 101.89 255.9 104.74 252.1 106.84C248.3 108.94 243.97 109.99 239.1 109.99ZM239.1 104.39C243.3 104.39 247.05 103.41 250.35 101.44C253.65 99.47 256.25 96.81 258.15 93.44C260.05 90.07 261 86.29 261 82.09C261 77.89 260.05 74.01 258.15 70.64C256.25 67.27 253.65 64.61 250.35 62.64C247.05 60.67 243.3 59.69 239.1 59.69C234.9 59.69 231.23 60.67 227.9 62.64C224.57 64.61 221.93 67.27 220 70.64C218.07 74.01 217.1 77.82 217.1 82.09C217.1 86.36 218.07 90.07 220 93.44C221.93 96.81 224.57 99.47 227.9 101.44C231.23 103.41 234.97 104.39 239.1 104.39ZM264.1 109.39C263.17 109.39 262.42 109.11 261.85 108.54C261.28 107.97 261 107.26 261 106.39V88.09L262.9 82.09H267V106.39C267 107.26 266.73 107.97 266.2 108.54C265.67 109.11 264.97 109.39 264.1 109.39Z" fill="#9DCDFB"/>
<path d="M76.6999 33.14C73.6299 35.14 71.2199 37.91 69.4499 41.44C67.6799 44.97 66.7999 49.04 66.7999 53.64V65.69C64.6699 62.22 61.6799 59.46 57.8499 57.39C54.0199 55.32 49.6999 54.29 44.8999 54.29C39.5699 54.29 34.7799 55.51 30.5499 57.94C26.3199 60.37 22.9799 63.69 20.5499 67.89C18.1199 72.09 16.8999 76.86 16.8999 82.19C16.8999 87.52 18.1199 92.31 20.5499 96.54C22.9799 100.77 26.3199 104.11 30.5499 106.54C34.7799 108.97 39.5699 110.19 44.8999 110.19C50.2299 110.19 54.8799 108.99 59.0499 106.59C62.0899 104.84 64.6699 102.63 66.7999 99.96C67.5999 98.97 68.3299 97.91 68.9999 96.79C71.4699 92.66 72.7299 87.99 72.7999 82.79V53.64C72.7999 48.51 74.1499 44.31 76.8499 41.04C77.8799 39.79 79.0299 38.78 80.2999 38.01V31.33C79.0299 31.8 77.8299 32.4 76.6999 33.14ZM66.7999 82.54C66.7499 86.67 65.7999 90.36 63.9499 93.64C62.0499 97.01 59.4499 99.67 56.1499 101.64C52.8499 103.61 49.0999 104.59 44.8999 104.59C40.6999 104.59 37.0299 103.61 33.6999 101.64C30.3699 99.67 27.7299 97.01 25.7999 93.64C23.8699 90.27 22.8999 86.46 22.8999 82.19C22.8999 77.92 23.8699 74.12 25.7999 70.79C27.7299 67.46 30.3699 64.81 33.6999 62.84C37.0299 60.87 40.7699 59.89 44.8999 59.89C49.0299 59.89 52.8499 60.87 56.1499 62.84C59.4499 64.81 62.0499 67.46 63.9499 70.79C65.7999 74.04 66.7499 77.74 66.7999 81.89V82.54Z" fill="#9DCDFB"/>
<path d="M334.25 67.82C331.83 63.61 328.51 60.29 324.3 57.85C324.28 57.84 324.27 57.83 324.25 57.82C322.37 56.74 320.39 55.9 318.3 55.3C315.67 54.55 312.87 54.17 309.9 54.17C304.7 54.17 300 55.37 295.8 57.77C292.73 59.53 290.13 61.74 288 64.4C287.22 65.38 286.5 66.42 285.85 67.52C283.42 71.62 282.13 76.31 282 81.57V110.79C282 111.02 282 111.26 282.01 111.49H282C282.01 111.87 282.01 112.24 282 112.6C281.92 117.21 280.54 120.92 277.85 123.74C276.84 124.8 275.72 125.67 274.5 126.36V132.86C275.5 132.47 276.47 131.99 277.4 131.44C279.13 130.41 280.67 129.16 282 127.69C283.13 126.47 284.11 125.09 284.96 123.56C284.97 123.54 284.99 123.51 285 123.49C286.87 120.09 287.87 116.09 288 111.49V98.67C290.13 102.14 293.12 104.91 296.95 106.97C300.78 109.04 305.1 110.07 309.9 110.07C312.87 110.07 315.67 109.69 318.3 108.94C320.39 108.34 322.37 107.5 324.25 106.42C324.27 106.41 324.28 106.4 324.3 106.39C328.51 103.96 331.83 100.64 334.25 96.42C336.68 92.19 337.9 87.44 337.9 82.17C337.9 76.9 336.68 72.06 334.25 67.82ZM329 93.52C327.73 95.74 326.16 97.65 324.3 99.25C323.33 100.09 322.28 100.85 321.15 101.52C320.24 102.06 319.29 102.53 318.3 102.92C315.74 103.96 312.94 104.47 309.9 104.47C305.77 104.47 302.03 103.49 298.7 101.52C295.37 99.56 292.75 96.89 290.85 93.52C289.01 90.26 288.06 86.59 288 82.54V81.89C288.04 77.74 288.99 74.02 290.85 70.72C292.75 67.36 295.37 64.69 298.7 62.72C302.03 60.76 305.77 59.77 309.9 59.77C312.94 59.77 315.74 60.29 318.3 61.32C319.29 61.71 320.24 62.18 321.15 62.72C322.28 63.39 323.33 64.15 324.3 65C326.16 66.6 327.73 68.51 329 70.72C330.93 74.09 331.9 77.91 331.9 82.17C331.9 86.43 330.93 90.16 329 93.52Z" fill="#9DCDFB"/>
</svg>