<?xml version="1.0" encoding="UTF-8"?>
<svg width="24" height="24" viewBox="0 0 24 24" fill="none" xmlns="http://www.w3.org/2000/svg">
  <path d="M3.7 4C3.4 4.2 3.1 4.5 2.9 5C2.7 5.5 2.6 6 2.6 6.5V8C2.4 7.6 2.1 7.3 1.7 7.1C1.3 6.9 0.8 6.8 0.3 6.8C-0.2 6.8 -0.7 7 -1.1 7.3C-1.5 7.6 -1.9 8 -2.1 8.5C-2.3 9 -2.4 9.5 -2.4 10.1C-2.4 10.7 -2.3 11.2 -2.1 11.7C-1.9 12.2 -1.5 12.6 -1.1 12.9C-0.7 13.2 -0.2 13.4 0.3 13.4C0.8 13.4 1.3 13.3 1.7 13C2.1 12.8 2.4 12.5 2.6 12.1C2.7 12 2.8 11.9 2.9 11.7C3.2 11.3 3.3 10.8 3.3 10.2V6.5C3.3 6 3.5 5.5 3.8 5.1C3.9 5 4 4.9 4.1 4.8V4.1C4 4.1 3.8 4.1 3.7 4ZM2.6 10.2C2.6 10.6 2.5 11 2.3 11.4C2.1 11.8 1.8 12.1 1.4 12.3C1 12.5 0.6 12.6 0.3 12.6C-0.1 12.6 -0.5 12.5 -0.8 12.3C-1.1 12.1 -1.4 11.8 -1.6 11.4C-1.8 11 -1.9 10.6 -1.9 10.1C-1.9 9.6 -1.8 9.2 -1.6 8.8C-1.4 8.4 -1.1 8.1 -0.8 7.9C-0.5 7.7 -0.1 7.6 0.3 7.6C0.7 7.6 1.1 7.7 1.4 7.9C1.7 8.1 2.1 8.4 2.3 8.8C2.5 9.2 2.6 9.6 2.6 10.1V10.2Z" transform="translate(5 0)" fill="currentColor"/>
  <path d="M20.8 8.1C20.5 7.7 20.2 7.3 19.8 7.1C19.8 7.1 19.8 7.1 19.8 7.1C19.6 7 19.4 6.9 19.2 6.8C18.9 6.7 18.6 6.7 18.3 6.7C17.8 6.7 17.3 6.8 16.9 7C16.5 7.2 16.2 7.4 16 7.7C15.9 7.8 15.8 7.9 15.7 8C15.5 8.4 15.4 8.9 15.3 9.4V12.3C15.3 12.3 15.3 12.4 15.3 12.4H15.3C15.3 12.4 15.3 12.5 15.3 12.5C15.3 13 15.1 13.4 14.8 13.7C14.7 13.8 14.6 13.9 14.5 14V14.7C14.6 14.6 14.7 14.6 14.8 14.5C15 14.4 15.1 14.3 15.2 14.1C15.3 14 15.4 13.9 15.5 13.7C15.5 13.7 15.5 13.7 15.5 13.7C15.7 13.3 15.8 12.9 15.8 12.4V11.2C16 11.5 16.3 11.8 16.7 12C17.1 12.2 17.5 12.3 18 12.3C18.3 12.3 18.6 12.3 18.9 12.2C19.1 12.1 19.3 12 19.5 11.9C19.5 11.9 19.5 11.9 19.5 11.9C19.9 11.7 20.2 11.3 20.5 10.9C20.8 10.5 20.9 10 20.9 9.5C20.9 9 20.8 8.5 20.5 8.1ZM19.8 10.8C19.7 11 19.5 11.2 19.3 11.4C19.2 11.5 19.1 11.6 19 11.7C18.9 11.7 18.8 11.8 18.7 11.8C18.4 11.9 18.1 12 17.8 12C17.4 12 17 11.9 16.6 11.7C16.3 11.5 16 11.2 15.8 10.8C15.6 10.5 15.5 10.1 15.5 9.7V9.6C15.5 9.2 15.6 8.8 15.8 8.5C16 8.2 16.3 7.9 16.6 7.7C16.9 7.5 17.3 7.4 17.8 7.4C18.1 7.4 18.4 7.5 18.7 7.6C18.8 7.6 18.9 7.7 19 7.7C19.1 7.8 19.2 7.8 19.3 7.9C19.5 8.1 19.7 8.3 19.8 8.5C20 8.9 20.1 9.3 20.1 9.7C20.1 10.1 20 10.5 19.8 10.8Z" transform="translate(3 0)" fill="currentColor"/>
</svg>