<svg width="800" height="400" viewBox="0 0 800 400" xmlns="http://www.w3.org/2000/svg">
  <!-- Fondo -->
  <rect width="800" height="400" fill="#f8f9fa" rx="10" ry="10"/>
  
  <!-- Líneas de código (backend) -->
  <g fill="#10b981" opacity="0.8">
    <rect x="50" y="80" width="400" height="12" rx="3" opacity="0.5"/>
    <rect x="50" y="105" width="500" height="12" rx="3" opacity="0.3"/>
    <rect x="50" y="130" width="300" height="12" rx="3" opacity="0.7"/>
    <rect x="50" y="155" width="450" height="12" rx="3" opacity="0.4"/>
    <rect x="50" y="180" width="350" height="12" rx="3" opacity="0.6"/>
    
    <!-- Elementos de servidor -->
    <rect x="600" y="80" width="150" height="112" rx="5" opacity="0.2"/>
    <rect x="620" y="100" width="110" height="12" rx="3" opacity="0.5"/>
    <rect x="620" y="125" width="60" height="12" rx="3" opacity="0.7"/>
    <rect x="620" y="150" width="90" height="25" rx="3" opacity="0.6"/>
    
    <!-- Elementos API -->
    <rect x="50" y="240" width="700" height="50" rx="5" opacity="0.2"/>
    <rect x="70" y="255" width="100" height="20" rx="3" opacity="0.7"/>
    <rect x="190" y="255" width="100" height="20" rx="3" opacity="0.7"/>
    <rect x="310" y="255" width="100" height="20" rx="3" opacity="0.7"/>
    <rect x="430" y="255" width="100" height="20" rx="3" opacity="0.7"/>
    <rect x="550" y="255" width="100" height="20" rx="3" opacity="0.7"/>
  </g>
  
  <!-- Texto Explicativo -->
  <text x="400" y="350" font-family="Arial, sans-serif" font-size="20" text-anchor="middle" fill="#10b981">
    Backend Development
  </text>
</svg>