<svg width="800" height="400" viewBox="0 0 800 400" xmlns="http://www.w3.org/2000/svg">
  <!-- Fondo -->
  <rect width="800" height="400" fill="#f8f9fa" rx="10" ry="10"/>
  
  <!-- Elementos de CSS -->
  <g fill="#264de4" opacity="0.8">
    <!-- Bloques de reglas CSS -->
    <rect x="50" y="80" width="350" height="70" rx="5" opacity="0.2"/>
    <rect x="50" y="160" width="350" height="50" rx="5" opacity="0.2"/>
    <rect x="50" y="220" width="350" height="90" rx="5" opacity="0.2"/>
    
    <!-- Propiedades y valores -->
    <rect x="70" y="100" width="150" height="12" rx="2" opacity="0.7"/>
    <rect x="230" y="100" width="150" height="12" rx="2" opacity="0.7"/>
    <rect x="70" y="120" width="130" height="12" rx="2" opacity="0.5"/>
    <rect x="210" y="120" width="170" height="12" rx="2" opacity="0.5"/>
    
    <rect x="70" y="180" width="120" height="12" rx="2" opacity="0.6"/>
    <rect x="200" y="180" width="180" height="12" rx="2" opacity="0.6"/>
    
    <rect x="70" y="240" width="160" height="12" rx="2" opacity="0.7"/>
    <rect x="240" y="240" width="140" height="12" rx="2" opacity="0.7"/>
    <rect x="70" y="260" width="140" height="12" rx="2" opacity="0.5"/>
    <rect x="220" y="260" width="160" height="12" rx="2" opacity="0.5"/>
    <rect x="70" y="280" width="130" height="12" rx="2" opacity="0.6"/>
    <rect x="210" y="280" width="170" height="12" rx="2" opacity="0.6"/>
    
    <!-- Resultado visual CSS -->
    <rect x="450" y="80" width="300" height="230" rx="5" opacity="0.2"/>
    <rect x="470" y="100" width="260" height="70" rx="3" opacity="0.4"/>
    <rect x="470" y="180" width="260" height="110" rx="3" opacity="0.6"/>
  </g>
  
  <!-- Texto CSS -->
  <text x="80" y="95" font-family="monospace" font-size="14" fill="#264de4">.selector {</text>
  <text x="90" y="115" font-family="monospace" font-size="12" fill="#264de4">  color: #264de4;</text>
  <text x="90" y="135" font-family="monospace" font-size="12" fill="#264de4">  font-size: 16px;</text>
  <text x="80" y="155" font-family="monospace" font-size="14" fill="#264de4">}</text>
  
  <!-- Texto Explicativo -->
  <text x="400" y="350" font-family="Arial, sans-serif" font-size="20" text-anchor="middle" fill="#264de4">
    CSS
  </text>
</svg>