<svg width="800" height="400" viewBox="0 0 800 400" xmlns="http://www.w3.org/2000/svg">
  <!-- Fondo -->
  <rect width="800" height="400" fill="#f8f9fa" rx="10" ry="10"/>
  
  <!-- Líneas y elementos de base de datos -->
  <g fill="#3b82f6" opacity="0.8">
    <!-- Estructura de tabla -->
    <rect x="50" y="80" width="700" height="40" rx="3" opacity="0.2"/>
    <rect x="70" y="90" width="100" height="20" rx="2" opacity="0.7"/>
    <rect x="200" y="90" width="100" height="20" rx="2" opacity="0.7"/>
    <rect x="330" y="90" width="100" height="20" rx="2" opacity="0.7"/>
    <rect x="460" y="90" width="100" height="20" rx="2" opacity="0.7"/>
    <rect x="590" y="90" width="100" height="20" rx="2" opacity="0.7"/>
    
    <!-- Filas de datos -->
    <rect x="50" y="130" width="700" height="30" rx="3" opacity="0.1"/>
    <rect x="70" y="135" width="80" height="20" rx="2" opacity="0.5"/>
    <rect x="200" y="135" width="80" height="20" rx="2" opacity="0.5"/>
    <rect x="330" y="135" width="80" height="20" rx="2" opacity="0.5"/>
    <rect x="460" y="135" width="80" height="20" rx="2" opacity="0.5"/>
    <rect x="590" y="135" width="80" height="20" rx="2" opacity="0.5"/>
    
    <rect x="50" y="170" width="700" height="30" rx="3" opacity="0.15"/>
    <rect x="70" y="175" width="80" height="20" rx="2" opacity="0.6"/>
    <rect x="200" y="175" width="80" height="20" rx="2" opacity="0.6"/>
    <rect x="330" y="175" width="80" height="20" rx="2" opacity="0.6"/>
    <rect x="460" y="175" width="80" height="20" rx="2" opacity="0.6"/>
    <rect x="590" y="175" width="80" height="20" rx="2" opacity="0.6"/>
    
    <rect x="50" y="210" width="700" height="30" rx="3" opacity="0.1"/>
    <rect x="70" y="215" width="80" height="20" rx="2" opacity="0.5"/>
    <rect x="200" y="215" width="80" height="20" rx="2" opacity="0.5"/>
    <rect x="330" y="215" width="80" height="20" rx="2" opacity="0.5"/>
    <rect x="460" y="215" width="80" height="20" rx="2" opacity="0.5"/>
    <rect x="590" y="215" width="80" height="20" rx="2" opacity="0.5"/>
    
    <!-- Elementos de consulta -->
    <rect x="50" y="260" width="400" height="12" rx="3" opacity="0.7"/>
    <rect x="50" y="280" width="350" height="12" rx="3" opacity="0.5"/>
  </g>
  
  <!-- Texto Explicativo -->
  <text x="400" y="350" font-family="Arial, sans-serif" font-size="20" text-anchor="middle" fill="#3b82f6">
    Database Management
  </text>
</svg>