<svg width="800" height="400" viewBox="0 0 800 400" xmlns="http://www.w3.org/2000/svg">
  <!-- Fondo -->
  <rect width="800" height="400" fill="#f5f6f8" rx="10" ry="10"/>
  
  <!-- Docker Logo -->
  <g transform="translate(70, 115) scale(0.7)">
    <path d="M124.8,16.5c-17.1,9.9-27.7,28.1-30.8,46.5c-0.6,3.7-0.8,5.8-1.2,6.2c-0.3,0.3-3,1.4-6,2.4c-9.3,3-18.8,7.7-26.2,12.9 c-2.4,1.7-2.8,2.3-2.5,3.2c0.2,0.6,0.2,1.1,0.1,1.1c-1,0-7.3,13.3-10.3,21.7c-2.4,6.5-5.2,17.7-5.2,20.8c0,0.5,1.4,1.8,3.1,3 c17.4,11.8,37.7,8.2,52.4-9.3c2.1-2.6,5.8-8,5.8-8.6c0-0.1,1.3,0.2,2.9,0.6c4.1,1.1,13.8,1.1,19.5,0.1c8.2-1.5,17.2-5.7,20.5-9.6 c0.5-0.6,1.1-1.1,1.3-1.1c0.2,0,3.1,1.6,6.5,3.6c8.5,4.9,16.2,7.1,24.9,7.1c6.5,0,9.3-0.6,15.4-3.5c4.1-1.9,10.1-5.7,10.1-6.4 c0-0.2-0.9-1.7-1.9-3.3c-1.1-1.6-2.6-4.3-3.4-5.8l-1.5-2.9l2.5-5.2c5.7-11.7,7.6-23,6-35.1c-0.5-3.6-0.5-3.9,1.3-4.9 c1-0.5,7.3-3,14-5.5c13.3-5,16.1-6.6,17.2-9.8c0.8-2.2,0.5-5-0.7-7.2c-0.7-1.3-3.9-4.3-12-11.1c-6.2-5.2-11.5-9.5-11.8-9.5 c-0.3,0-2,1.5-3.9,3.4c-8.7,8.8-18.9,14.5-29.9,16.8c-6.4,1.3-17.5,1.3-24,0c-13.8-2.9-27.4-11.6-38.5-24.6 c-4.6-5.4-12.5-17.8-12.5-19.5c0-0.1-1.2,0.1-2.6,0.5c-10.7,3.5-22.1,11.9-27.5,20.2C118.1,7.1,119.2,7.2,124.8,16.5z" fill="#066da5"/>
  </g>
  
  <!-- Contenedores -->
  <g transform="translate(210, 80)">
    <rect width="520" height="240" rx="5" fill="#ffffff" stroke="#dddddd" stroke-width="1" />
    
    <!-- Contenedor Web -->
    <g transform="translate(40, 30)">
      <rect width="120" height="80" rx="5" fill="#50b7e0" />
      <text x="60" y="45" font-family="Arial, sans-serif" font-size="16" fill="white" text-anchor="middle" font-weight="bold">Web App</text>
      <text x="60" y="65" font-family="Arial, sans-serif" font-size="12" fill="white" text-anchor="middle">port 80:80</text>
    </g>
    
    <!-- Contenedor API -->
    <g transform="translate(200, 30)">
      <rect width="120" height="80" rx="5" fill="#066da5" />
      <text x="60" y="45" font-family="Arial, sans-serif" font-size="16" fill="white" text-anchor="middle" font-weight="bold">API</text>
      <text x="60" y="65" font-family="Arial, sans-serif" font-size="12" fill="white" text-anchor="middle">port 3000:3000</text>
    </g>
    
    <!-- Contenedor Database -->
    <g transform="translate(360, 30)">
      <rect width="120" height="80" rx="5" fill="#34495e" />
      <text x="60" y="45" font-family="Arial, sans-serif" font-size="16" fill="white" text-anchor="middle" font-weight="bold">MongoDB</text>
      <text x="60" y="65" font-family="Arial, sans-serif" font-size="12" fill="white" text-anchor="middle">port 27017:27017</text>
    </g>
    
    <!-- Conexiones -->
    <g transform="translate(0, 70)">
      <line x1="160" y1="0" x2="200" y2="0" stroke="#999999" stroke-width="2" />
      <line x1="320" y1="0" x2="360" y2="0" stroke="#999999" stroke-width="2" />
    </g>
    
    <!-- Terminal Docker -->
    <g transform="translate(40, 140)">
      <rect width="440" height="70" rx="5" fill="#282c34" />
      <text x="15" y="25" font-family="monospace" font-size="12" fill="#9fef00">$ docker-compose up -d</text>
      <text x="15" y="45" font-family="monospace" font-size="12" fill="#cccccc">Creating network "myapp_default" with the default driver</text>
      <text x="15" y="65" font-family="monospace" font-size="12" fill="#cccccc">Creating myapp_db_1 ... done</text>
    </g>
  </g>
  
  <!-- Docker Compose -->
  <g transform="translate(265, 340)">
    <rect width="440" height="30" rx="5" fill="#f5f5f5" stroke="#cccccc" stroke-width="1" />
    <text x="15" y="20" font-family="monospace" font-size="12" fill="#066da5">docker-compose.yml</text>
  </g>
  
  <!-- Texto Explicativo -->
  <text x="400" y="390" font-family="Arial, sans-serif" font-size="22" text-anchor="middle" fill="#066da5">Docker</text>
</svg>