<svg width="800" height="400" viewBox="0 0 800 400" xmlns="http://www.w3.org/2000/svg">
  <!-- Fondo -->
  <rect width="800" height="400" fill="#f8f9fa" rx="10" ry="10"/>
  
  <!-- Líneas de código (frontend) -->
  <g fill="#3b82f6" opacity="0.8">
    <rect x="50" y="80" width="500" height="12" rx="3" opacity="0.3"/>
    <rect x="50" y="105" width="350" height="12" rx="3" opacity="0.5"/>
    <rect x="50" y="130" width="450" height="12" rx="3" opacity="0.7"/>
    <rect x="50" y="155" width="400" height="12" rx="3" opacity="0.4"/>
    <rect x="50" y="180" width="200" height="12" rx="3" opacity="0.6"/>
    
    <!-- Elementos UI -->
    <rect x="600" y="80" width="150" height="112" rx="5" opacity="0.2"/>
    <rect x="620" y="100" width="110" height="12" rx="3" opacity="0.6"/>
    <rect x="620" y="125" width="60" height="12" rx="3" opacity="0.4"/>
    <rect x="620" y="150" width="90" height="25" rx="5" opacity="0.8"/>
    
    <!-- Elementos de navegación -->
    <rect x="50" y="240" width="700" height="50" rx="5" opacity="0.2"/>
    <circle cx="80" cy="265" r="15" opacity="0.7"/>
    <rect x="110" y="260" width="80" height="10" rx="3" opacity="0.6"/>
    <rect x="210" y="260" width="60" height="10" rx="3" opacity="0.6"/>
    <rect x="290" y="260" width="70" height="10" rx="3" opacity="0.6"/>
    <rect x="650" y="255" width="70" height="20" rx="5" opacity="0.8"/>
  </g>
  
  <!-- Texto Explicativo -->
  <text x="400" y="350" font-family="Arial, sans-serif" font-size="20" text-anchor="middle" fill="#3b82f6">
    Frontend Development
  </text>
</svg>