<svg width="800" height="400" viewBox="0 0 800 400" xmlns="http://www.w3.org/2000/svg">
  <!-- Fondo -->
  <rect width="800" height="400" fill="#eaeef2" rx="10" ry="10"/>
  
  <!-- Git Logo -->
  <g transform="translate(90, 100)">
    <svg width="100" height="100" viewBox="0 0 100 100" xmlns="http://www.w3.org/2000/svg">
      <path d="M95.4,47.3L52.7,4.6C51.3,3.2,49.5,2.5,47.6,2.5c-1.9,0-3.7,0.8-5.1,2.1L32.6,14.5l12.7,12.7c3-1,6.5-0.3,8.9,2.1 c2.4,2.4,3.1,5.9,2.1,8.9l12.2,12.2c3-1,6.5-0.3,8.9,2.1c3.3,3.3,3.3,8.7,0,12.1c-3.3,3.3-8.7,3.3-12.1,0c-2.5-2.5-3.1-6.2-1.8-9.3 L51.4,43.2v30.2c0.8,0.4,1.6,0.9,2.2,1.6c3.3,3.3,3.3,8.7,0,12.1c-3.3,3.3-8.7,3.3-12.1,0c-3.3-3.3-3.3-8.7,0-12.1 c0.8-0.8,1.8-1.4,2.8-1.8V42.7c-1-0.4-1.9-1-2.8-1.8c-2.5-2.5-3.1-6.2-1.8-9.3L27.3,19L4.6,41.8C3.2,43.2,2.5,45,2.5,46.9 c0,1.9,0.8,3.7,2.1,5.1l42.7,42.7c1.4,1.4,3.2,2.1,5.1,2.1s3.7-0.8,5.1-2.1l42.6-42.6c1.4-1.4,2.1-3.2,2.1-5.1 C97.6,50.5,96.8,48.7,95.4,47.3z" fill="#F05033"/>
    </svg>
  </g>
  
  <!-- Terminal Git -->
  <g transform="translate(230, 60)">
    <rect width="500" height="280" rx="5" fill="#282a36" />
    
    <!-- Historial de commits -->
    <text x="20" y="30" font-family="monospace" font-size="14" fill="#ffffff">$</text>
    <text x="40" y="30" font-family="monospace" font-size="14" fill="#f8f8f2">git</text>
    <text x="70" y="30" font-family="monospace" font-size="14" fill="#ff5555">log</text>
    <text x="100" y="30" font-family="monospace" font-size="14" fill="#f8f8f2">--oneline</text>
    
    <text x="20" y="60" font-family="monospace" font-size="14" fill="#ffb86c">d65a4c4</text>
    <text x="100" y="60" font-family="monospace" font-size="14" fill="#f8f8f2">(</text>
    <text x="105" y="60" font-family="monospace" font-size="14" fill="#ff79c6">HEAD</text>
    <text x="145" y="60" font-family="monospace" font-size="14" fill="#f8f8f2">-></text>
    <text x="165" y="60" font-family="monospace" font-size="14" fill="#ff79c6">main</text>
    <text x="200" y="60" font-family="monospace" font-size="14" fill="#f8f8f2">) Add new feature</text>
    
    <text x="20" y="90" font-family="monospace" font-size="14" fill="#ffb86c">2a7c3e5</text>
    <text x="100" y="90" font-family="monospace" font-size="14" fill="#f8f8f2">Fix bug in login component</text>
    
    <text x="20" y="120" font-family="monospace" font-size="14" fill="#ffb86c">8b9f1a2</text>
    <text x="100" y="120" font-family="monospace" font-size="14" fill="#f8f8f2">Update documentation</text>
    
    <text x="20" y="150" font-family="monospace" font-size="14" fill="#ffb86c">5c3e7d9</text>
    <text x="100" y="150" font-family="monospace" font-size="14" fill="#f8f8f2">Improve performance</text>
    
    <text x="20" y="180" font-family="monospace" font-size="14" fill="#ffb86c">1f4b8e7</text>
    <text x="100" y="180" font-family="monospace" font-size="14" fill="#f8f8f2">Initial commit</text>
    
    <text x="20" y="210" font-family="monospace" font-size="14" fill="#ffffff">$</text>
    <text x="40" y="210" font-family="monospace" font-size="14" fill="#f8f8f2">git</text>
    <text x="70" y="210" font-family="monospace" font-size="14" fill="#ff5555">status</text>
    
    <text x="20" y="240" font-family="monospace" font-size="14" fill="#f8f8f2">On branch main</text>
    <text x="20" y="270" font-family="monospace" font-size="14" fill="#f8f8f2">Your branch is up to date with 'origin/main'.</text>
    
    <text x="20" y="300" font-family="monospace" font-size="14" fill="#f8f8f2">nothing to commit, working tree clean</text>
  </g>
  
  <!-- Git Branch Graph -->
  <g transform="translate(170, 190)">
    <circle cx="0" cy="0" r="6" fill="#F05033" />
    <circle cx="20" cy="30" r="6" fill="#F05033" />
    <circle cx="40" cy="60" r="6" fill="#F05033" />
    <circle cx="60" cy="30" r="6" fill="#F05033" />
    <circle cx="80" cy="0" r="6" fill="#F05033" />
    
    <line x1="0" y1="0" x2="20" y2="30" stroke="#F05033" stroke-width="2" />
    <line x1="20" y1="30" x2="40" y2="60" stroke="#F05033" stroke-width="2" />
    <line x1="40" y1="60" x2="60" y2="30" stroke="#F05033" stroke-width="2" />
    <line x1="60" y1="30" x2="80" y2="0" stroke="#F05033" stroke-width="2" />
  </g>
  
  <!-- Texto Explicativo -->
  <text x="400" y="370" font-family="Arial, sans-serif" font-size="22" text-anchor="middle" fill="#333333">Git</text>
  <text x="400" y="395" font-family="Arial, sans-serif" font-size="14" text-anchor="middle" fill="#666666">Distributed version control system</text>
</svg>