<svg width="800" height="400" viewBox="0 0 800 400" xmlns="http://www.w3.org/2000/svg">
  <!-- Fondo -->
  <rect width="800" height="400" fill="#f8f9fa" rx="10" ry="10"/>
  
  <!-- Elementos de HTML -->
  <g fill="#e34c26" opacity="0.8">
    <!-- Estructura del documento HTML -->
    <rect x="50" y="80" width="700" height="250" rx="5" opacity="0.1"/>
    <rect x="80" y="100" width="640" height="210" rx="5" opacity="0.15"/>
    
    <!-- Etiquetas HTML -->
    <rect x="100" y="120" width="200" height="30" rx="3" opacity="0.7"/>
    <rect x="100" y="160" width="600" height="20" rx="3" opacity="0.4"/>
    <rect x="100" y="190" width="400" height="20" rx="3" opacity="0.6"/>
    <rect x="100" y="220" width="300" height="20" rx="3" opacity="0.5"/>
    <rect x="100" y="250" width="500" height="20" rx="3" opacity="0.7"/>
    
    <!-- Etiquetas de cierre -->
    <rect x="100" y="280" width="120" height="20" rx="3" opacity="0.6"/>
  </g>
  
  <!-- Símbolos HTML -->
  <text x="110" y="140" font-family="monospace" font-size="14" fill="#e34c26">&lt;html&gt;</text>
  <text x="120" y="175" font-family="monospace" font-size="14" fill="#e34c26">&lt;head&gt;...&lt;/head&gt;</text>
  <text x="120" y="205" font-family="monospace" font-size="14" fill="#e34c26">&lt;body&gt;</text>
  <text x="140" y="235" font-family="monospace" font-size="14" fill="#e34c26">&lt;div&gt;...&lt;/div&gt;</text>
  <text x="140" y="265" font-family="monospace" font-size="14" fill="#e34c26">&lt;section&gt;...&lt;/section&gt;</text>
  <text x="120" y="295" font-family="monospace" font-size="14" fill="#e34c26">&lt;/body&gt;</text>
  
  <!-- Texto Explicativo -->
  <text x="400" y="350" font-family="Arial, sans-serif" font-size="20" text-anchor="middle" fill="#e34c26">
    HTML
  </text>
</svg>