<svg width="800" height="400" viewBox="0 0 800 400" xmlns="http://www.w3.org/2000/svg">
  <!-- Fondo -->
  <rect width="800" height="400" fill="#f8f9fa" rx="10" ry="10"/>
  
  <!-- Elementos de JavaScript -->
  <g fill="#f7df1e" opacity="0.8">
    <!-- Bloques de código JS -->
    <rect x="50" y="80" width="350" height="90" rx="5" opacity="0.2"/>
    <rect x="50" y="180" width="350" height="60" rx="5" opacity="0.2"/>
    <rect x="50" y="250" width="350" height="80" rx="5" opacity="0.2"/>
    
    <!-- Líneas de código -->
    <rect x="70" y="100" width="310" height="12" rx="2" opacity="0.7"/>
    <rect x="70" y="120" width="280" height="12" rx="2" opacity="0.5"/>
    <rect x="70" y="140" width="250" height="12" rx="2" opacity="0.6"/>
    
    <rect x="70" y="200" width="290" height="12" rx="2" opacity="0.7"/>
    <rect x="70" y="220" width="230" height="12" rx="2" opacity="0.5"/>
    
    <rect x="70" y="270" width="300" height="12" rx="2" opacity="0.6"/>
    <rect x="70" y="290" width="270" height="12" rx="2" opacity="0.7"/>
    <rect x="70" y="310" width="240" height="12" rx="2" opacity="0.5"/>
    
    <!-- Resultado o salida JS -->
    <rect x="450" y="80" width="300" height="130" rx="5" opacity="0.2"/>
    <rect x="470" y="100" width="260" height="20" rx="3" opacity="0.7"/>
    <rect x="470" y="130" width="260" height="60" rx="3" opacity="0.5"/>
    
    <!-- Consola -->
    <rect x="450" y="220" width="300" height="110" rx="5" opacity="0.15"/>
    <rect x="470" y="240" width="260" height="70" rx="3" opacity="0.6"/>
  </g>
  
  <!-- Texto JavaScript -->
  <text x="80" y="95" font-family="monospace" font-size="14" fill="#f7df1e">function showMessage() {</text>
  <text x="90" y="115" font-family="monospace" font-size="12" fill="#f7df1e">  const message = "Hello World!";</text>
  <text x="90" y="135" font-family="monospace" font-size="12" fill="#f7df1e">  console.log(message);</text>
  <text x="80" y="155" font-family="monospace" font-size="14" fill="#f7df1e">}</text>
  
  <!-- Texto Explicativo -->
  <text x="400" y="350" font-family="Arial, sans-serif" font-size="20" text-anchor="middle" fill="#f7df1e">
    JavaScript
  </text>
</svg>