<svg width="800" height="400" viewBox="0 0 800 400" xmlns="http://www.w3.org/2000/svg">
  <!-- Fondo -->
  <rect width="800" height="400" fill="#f5f5f5" rx="10" ry="10"/>
  
  <!-- MongoDB Logo -->
  <g transform="translate(50, 70) scale(0.4)">
    <path d="M 271.987 135.997 C 271.987 70.141 211.178 16.053 136.56 16.053 C 61.937 16.053 1.127 70.137 1.127 135.997 C 1.127 201.857 61.937 255.94 136.56 255.94 C 211.178 255.94 271.987 201.857 271.987 135.997 Z" fill="#599636"/>
    <path d="M 118.751 199.316 C 115.401 209.458 112.401 219.1 108.951 229.041 C 108.701 229.541 108.401 230.641 107.751 230.941 C 107.701 231.041 107.151 230.841 107.001 230.641 C 106.201 229.941 105.401 229.241 104.701 228.341 C 92.6 213.841 85.5 197.041 82.7 178.441 C 82.1 174.941 82 171.341 81.5 167.841 C 81.9 167.841 82.301 167.741 82.651 167.841 C 84.751 168.341 86.901 168.641 88.901 169.341 C 100.301 173.241 108.201 181.341 113.201 191.941 C 114.851 194.441 116.301 197.141 118.651 199.341 L 118.751 199.316 Z" fill="#ffffff"/>
    <path d="M 147.096 120.548 C 147.796 122.048 148.396 123.598 149.196 124.998 C 157.196 138.298 161.096 152.798 162.896 168.198 C 163.296 171.398 163.396 174.598 163.896 177.798 C 163.896 177.898 163.796 177.998 163.696 178.198 L 163.496 178.198 C 161.096 177.798 158.496 177.798 156.296 176.998 C 146.796 173.898 140.096 167.398 135.396 158.798 C 134.196 156.498 132.996 154.098 132.196 151.598 C 129.796 143.998 129.396 136.298 131.196 128.498 C 131.996 125.198 133.696 122.198 135.696 119.398 C 136.396 118.498 137.196 117.598 138.196 116.798 C 138.696 116.398 139.496 116.298 140.096 115.898 C 141.096 117.298 141.996 118.598 143.096 119.798 C 143.796 119.998 144.596 120.098 145.396 120.198 C 145.996 120.298 146.596 120.398 147.096 120.548 Z" fill="#ffffff"/>
    <path d="M 157.795 113.35 C 157.395 114.25 157.095 114.95 156.695 115.65 C 153.495 121.65 149.495 126.95 143.895 130.75 C 142.995 131.35 142.095 131.95 141.095 132.55 C 138.195 133.95 135.295 133.65 132.095 132.35 C 130.695 131.75 129.395 130.85 127.995 130.15 C 123.295 127.75 120.395 124.05 118.595 119.05 C 117.795 116.85 117.595 114.55 116.695 112.35 C 116.695 112.25 116.795 112.05 116.795 111.85 C 118.095 110.15 119.395 108.45 120.695 106.75 C 123.995 102.75 128.195 100.55 133.195 99.95 C 134.295 99.85 135.395 99.65 136.495 99.45 C 143.495 99.45 149.095 102.45 153.495 107.85 C 154.995 109.75 156.095 111.85 157.795 113.75 L 157.795 113.35 Z" fill="#ffffff"/>
    <path d="M 163.794 177.997 L 163.994 177.997 C 163.994 178.297 163.994 178.597 163.894 178.897 C 161.794 196.097 155.894 211.797 145.694 225.797 C 142.394 230.997 138.494 235.597 133.694 239.497 C 133.494 239.697 133.294 239.897 133.094 239.997 C 132.994 239.897 132.894 239.797 132.794 239.697 C 132.594 238.997 132.394 238.297 132.194 237.597 C 131.194 233.597 130.194 229.597 129.294 225.597 C 128.294 220.997 128.494 216.397 129.894 211.897 C 131.394 207.097 133.394 202.497 135.594 198.097 C 141.294 186.497 148.594 176.097 158.094 167.497 C 159.594 166.197 161.294 165.097 162.894 163.897 C 163.194 163.697 163.694 163.597 163.994 163.397 C 164.094 164.897 164.194 166.397 164.294 167.897 C 164.494 171.297 164.294 174.697 163.794 177.997 Z" fill="#ffffff"/>
  </g>
  
  <!-- MongoDB Shell -->
  <g transform="translate(200, 80)">
    <rect width="550" height="240" rx="5" fill="#282828" />
    
    <!-- Linea de comandos -->
    <text x="20" y="30" font-family="monospace" font-size="14" fill="#6aa84f">mongodb>db.users.find()</text>
    
    <!-- Resultados JSON -->
    <text x="20" y="60" font-family="monospace" font-size="14" fill="#eeeeee">[</text>
    <text x="30" y="90" font-family="monospace" font-size="14" fill="#eeeeee">{</text>
    <text x="45" y="120" font-family="monospace" font-size="14" fill="#f1c232">"_id"</text>
    <text x="80" y="120" font-family="monospace" font-size="14" fill="#eeeeee">:</text>
    <text x="90" y="120" font-family="monospace" font-size="14" fill="#eeeeee">ObjectId("6341a89b4f8fc1a356b0a199"),</text>
    <text x="45" y="150" font-family="monospace" font-size="14" fill="#f1c232">"name"</text>
    <text x="90" y="150" font-family="monospace" font-size="14" fill="#eeeeee">:</text>
    <text x="100" y="150" font-family="monospace" font-size="14" fill="#6fa8dc">"John Doe",</text>
    <text x="45" y="180" font-family="monospace" font-size="14" fill="#f1c232">"email"</text>
    <text x="90" y="180" font-family="monospace" font-size="14" fill="#eeeeee">:</text>
    <text x="100" y="180" font-family="monospace" font-size="14" fill="#6fa8dc">"john@example.com",</text>
    <text x="45" y="210" font-family="monospace" font-size="14" fill="#f1c232">"age"</text>
    <text x="80" y="210" font-family="monospace" font-size="14" fill="#eeeeee">:</text>
    <text x="90" y="210" font-family="monospace" font-size="14" fill="#cc0000">30</text>
    <text x="30" y="240" font-family="monospace" font-size="14" fill="#eeeeee">}</text>
    <text x="20" y="270" font-family="monospace" font-size="14" fill="#eeeeee">]</text>
  </g>
  
  <!-- MongoDB Diagrama -->
  <g transform="translate(400, 350)">
    <circle cx="0" cy="0" r="14" fill="#599636" />
    <circle cx="35" cy="0" r="14" fill="#599636" />
    <circle cx="70" cy="0" r="14" fill="#599636" />
    <line x1="14" y1="0" x2="21" y2="0" stroke="#599636" stroke-width="2" />
    <line x1="49" y1="0" x2="56" y2="0" stroke="#599636" stroke-width="2" />
  </g>
  
  <!-- Texto Explicativo -->
  <text x="400" y="340" font-family="Arial, sans-serif" font-size="22" text-anchor="middle" fill="#599636">MongoDB</text>
  <text x="400" y="365" font-family="Arial, sans-serif" font-size="14" text-anchor="middle" fill="#666666">NoSQL Document Database</text>
</svg>