<svg width="800" height="400" viewBox="0 0 800 400" xmlns="http://www.w3.org/2000/svg">
  <!-- Fondo -->
  <rect width="800" height="400" fill="#0e1d2c" rx="10" ry="10"/>
  
  <!-- Supabase Logo -->
  <g transform="translate(80, 100)">
    <svg width="120" height="120" viewBox="0 0 109 113" xmlns="http://www.w3.org/2000/svg">
      <path d="M63.7076 110.284C60.8481 113.885 55.0502 111.912 54.9813 107.314L53.9738 40.0627L99.1935 40.0627C107.384 40.0627 111.952 49.5228 106.859 55.9374L63.7076 110.284Z" fill="url(#paint0_linear)"/>
      <path d="M63.7076 110.284C60.8481 113.885 55.0502 111.912 54.9813 107.314L53.9738 40.0627L99.1935 40.0627C107.384 40.0627 111.952 49.5228 106.859 55.9374L63.7076 110.284Z" fill="url(#paint1_linear)" fill-opacity="0.2"/>
      <path d="M45.317 2.07103C48.1765 -1.53037 53.9745 0.442937 54.0434 5.041L54.4849 72.2922H9.83113C1.64038 72.2922 -2.92775 62.8321 2.1655 56.4175L45.317 2.07103Z" fill="#3ECF8E"/>
      <defs>
        <linearGradient id="paint0_linear" x1="53.9738" y1="54.974" x2="94.1635" y2="71.8295" gradientUnits="userSpaceOnUse">
          <stop stop-color="#249361"/>
          <stop offset="1" stop-color="#3ECF8E"/>
        </linearGradient>
        <linearGradient id="paint1_linear" x1="36.1558" y1="30.578" x2="54.4844" y2="65.0806" gradientUnits="userSpaceOnUse">
          <stop/>
          <stop offset="1" stop-opacity="0"/>
        </linearGradient>
      </defs>
    </svg>
  </g>
  
  <!-- Código Supabase -->
  <g transform="translate(230, 60)">
    <rect width="520" height="280" rx="5" fill="#1f2938" />
    
    <!-- Código JavaScript -->
    <text x="20" y="30" font-family="monospace" font-size="14" fill="#74b0df">import</text>
    <text x="80" y="30" font-family="monospace" font-size="14" fill="#e6e6e6">{ createClient } from</text>
    <text x="230" y="30" font-family="monospace" font-size="14" fill="#a5d6a7">'@supabase/supabase-js'</text>
    
    <text x="20" y="60" font-family="monospace" font-size="14" fill="#74b0df">const</text>
    <text x="60" y="60" font-family="monospace" font-size="14" fill="#e6e6e6">supabaseUrl =</text>
    <text x="160" y="60" font-family="monospace" font-size="14" fill="#a5d6a7">'https://example.supabase.co'</text>
    <text x="20" y="90" font-family="monospace" font-size="14" fill="#74b0df">const</text>
    <text x="60" y="90" font-family="monospace" font-size="14" fill="#e6e6e6">supabaseKey =</text>
    <text x="160" y="90" font-family="monospace" font-size="14" fill="#a5d6a7">'your-supabase-key'</text>
    <text x="20" y="120" font-family="monospace" font-size="14" fill="#74b0df">const</text>
    <text x="60" y="120" font-family="monospace" font-size="14" fill="#e6e6e6">supabase = createClient(supabaseUrl, supabaseKey)</text>
    
    <text x="20" y="150" font-family="monospace" font-size="14" fill="#e6e6e6">// Query data</text>
    <text x="20" y="180" font-family="monospace" font-size="14" fill="#74b0df">async</text>
    <text x="70" y="180" font-family="monospace" font-size="14" fill="#74b0df">function</text>
    <text x="120" y="180" font-family="monospace" font-size="14" fill="#88c9ff">getUsers</text>
    <text x="180" y="180" font-family="monospace" font-size="14" fill="#e6e6e6">() {</text>
    <text x="40" y="210" font-family="monospace" font-size="14" fill="#74b0df">const</text>
    <text x="80" y="210" font-family="monospace" font-size="14" fill="#e6e6e6">{ data, error } =</text>
    <text x="210" y="210" font-family="monospace" font-size="14" fill="#74b0df">await</text>
    <text x="250" y="210" font-family="monospace" font-size="14" fill="#e6e6e6">supabase</text>
    <text x="40" y="240" font-family="monospace" font-size="14" fill="#e6e6e6">  .from(</text>
    <text x="90" y="240" font-family="monospace" font-size="14" fill="#a5d6a7">'users'</text>
    <text x="130" y="240" font-family="monospace" font-size="14" fill="#e6e6e6">)</text>
    <text x="40" y="270" font-family="monospace" font-size="14" fill="#e6e6e6">  .select(</text>
    <text x="100" y="270" font-family="monospace" font-size="14" fill="#a5d6a7">'id, name, email'</text>
    <text x="220" y="270" font-family="monospace" font-size="14" fill="#e6e6e6">)</text>
    
    <text x="40" y="300" font-family="monospace" font-size="14" fill="#74b0df">return</text>
    <text x="90" y="300" font-family="monospace" font-size="14" fill="#e6e6e6">{ data, error }</text>
    <text x="20" y="330" font-family="monospace" font-size="14" fill="#e6e6e6">}</text>
  </g>
  
  <!-- Database Table -->
  <g transform="translate(470, 150)">
    <rect width="260" height="130" rx="5" fill="#1f2938" stroke="#3ECF8E" stroke-width="1" />
    <text x="20" y="30" font-family="monospace" font-size="14" fill="#3ECF8E">users</text>
    
    <line x1="20" y1="40" x2="240" y2="40" stroke="#3ECF8E" stroke-width="1" />
    
    <text x="30" y="60" font-family="monospace" font-size="12" fill="#88c9ff">id</text>
    <text x="100" y="60" font-family="monospace" font-size="12" fill="#88c9ff">name</text>
    <text x="180" y="60" font-family="monospace" font-size="12" fill="#88c9ff">email</text>
    
    <line x1="20" y1="70" x2="240" y2="70" stroke="#3ECF8E" stroke-width="1" opacity="0.5" />
    
    <text x="30" y="90" font-family="monospace" font-size="12" fill="#e6e6e6">1</text>
    <text x="100" y="90" font-family="monospace" font-size="12" fill="#e6e6e6">John</text>
    <text x="180" y="90" font-family="monospace" font-size="12" fill="#e6e6e6">john@example.com</text>
    
    <text x="30" y="110" font-family="monospace" font-size="12" fill="#e6e6e6">2</text>
    <text x="100" y="110" font-family="monospace" font-size="12" fill="#e6e6e6">Jane</text>
    <text x="180" y="110" font-family="monospace" font-size="12" fill="#e6e6e6">jane@example.com</text>
  </g>
  
  <!-- Texto Explicativo -->
  <text x="400" y="370" font-family="Arial, sans-serif" font-size="22" text-anchor="middle" fill="#3ECF8E">Supabase</text>
  <text x="400" y="395" font-family="Arial, sans-serif" font-size="14" text-anchor="middle" fill="#e6e6e6">The open source Firebase alternative</text>
</svg>