<svg width="800" height="400" viewBox="0 0 800 400" xmlns="http://www.w3.org/2000/svg">
  <!-- Fondo -->
  <rect width="800" height="400" fill="#f8f9fa" rx="10" ry="10"/>
  
  <!-- Tailwind Logo -->
  <g transform="translate(100, 100) scale(1.2)">
    <svg width="70" height="44" viewBox="0 0 256 154" xmlns="http://www.w3.org/2000/svg" fill="#06b6d4">
      <path d="M128 0C93.867 0 72.533 17.067 64 51.2 76.8 34.133 91.733 27.733 108.8 32c9.739 2.434 16.697 9.499 24.401 17.318C145.751 62.057 160.275 76.8 192 76.8c34.133 0 55.467-17.067 64-51.2-12.8 17.067-27.733 23.467-44.8 19.2-9.739-2.434-16.697-9.499-24.401-17.318C173.249 14.143 158.725 0 128 0ZM64 76.8C29.867 76.8 8.533 93.867 0 128c12.8-17.067 27.733-23.467 44.8-19.2 9.739 2.434 16.697 9.499 24.401 17.318C81.751 138.857 96.275 153.6 128 153.6c34.133 0 55.467-17.067 64-51.2-12.8 17.067-27.733 23.467-44.8 19.2-9.739-2.434-16.697-9.499-24.401-17.318C109.249 90.943 94.725 76.8 64 76.8Z" />
    </svg>
  </g>
  
  <!-- HTML + Tailwind CSS -->
  <g transform="translate(200, 80)">
    <rect width="550" height="240" rx="5" fill="#1e293b" />
    
    <!-- Código HTML + Tailwind -->
    <text x="20" y="30" font-family="monospace" font-size="14" fill="#f472b6">&lt;div</text>
    <text x="55" y="30" font-family="monospace" font-size="14" fill="#38bdf8">class</text>
    <text x="95" y="30" font-family="monospace" font-size="14" fill="#f472b6">=</text>
    <text x="105" y="30" font-family="monospace" font-size="14" fill="#a5f3fc">"flex flex-col md:flex-row items-center p-6 bg-white shadow-lg rounded-lg"</text>
    <text x="540" y="30" font-family="monospace" font-size="14" fill="#f472b6">&gt;</text>
    
    <text x="40" y="60" font-family="monospace" font-size="14" fill="#f472b6">&lt;img</text>
    <text x="80" y="60" font-family="monospace" font-size="14" fill="#38bdf8">src</text>
    <text x="105" y="60" font-family="monospace" font-size="14" fill="#f472b6">=</text>
    <text x="115" y="60" font-family="monospace" font-size="14" fill="#a5f3fc">"avatar.jpg"</text>
    <text x="200" y="60" font-family="monospace" font-size="14" fill="#38bdf8">class</text>
    <text x="240" y="60" font-family="monospace" font-size="14" fill="#f472b6">=</text>
    <text x="250" y="60" font-family="monospace" font-size="14" fill="#a5f3fc">"h-24 w-24 rounded-full object-cover mr-6"</text>
    <text x="530" y="60" font-family="monospace" font-size="14" fill="#f472b6">/&gt;</text>
    
    <text x="40" y="90" font-family="monospace" font-size="14" fill="#f472b6">&lt;div</text>
    <text x="80" y="90" font-family="monospace" font-size="14" fill="#38bdf8">class</text>
    <text x="120" y="90" font-family="monospace" font-size="14" fill="#f472b6">=</text>
    <text x="130" y="90" font-family="monospace" font-size="14" fill="#a5f3fc">"mt-4 md:mt-0"</text>
    <text x="245" y="90" font-family="monospace" font-size="14" fill="#f472b6">&gt;</text>
    
    <text x="60" y="120" font-family="monospace" font-size="14" fill="#f472b6">&lt;h2</text>
    <text x="85" y="120" font-family="monospace" font-size="14" fill="#38bdf8">class</text>
    <text x="125" y="120" font-family="monospace" font-size="14" fill="#f472b6">=</text>
    <text x="135" y="120" font-family="monospace" font-size="14" fill="#a5f3fc">"text-2xl font-bold text-gray-900"</text>
    <text x="360" y="120" font-family="monospace" font-size="14" fill="#f472b6">&gt;</text>
    <text x="370" y="120" font-family="monospace" font-size="14" fill="#e2e8f0">John Doe</text>
    <text x="435" y="120" font-family="monospace" font-size="14" fill="#f472b6">&lt;/h2&gt;</text>
    
    <text x="60" y="150" font-family="monospace" font-size="14" fill="#f472b6">&lt;p</text>
    <text x="75" y="150" font-family="monospace" font-size="14" fill="#38bdf8">class</text>
    <text x="115" y="150" font-family="monospace" font-size="14" fill="#f472b6">=</text>
    <text x="125" y="150" font-family="monospace" font-size="14" fill="#a5f3fc">"text-lg text-gray-600"</text>
    <text x="280" y="150" font-family="monospace" font-size="14" fill="#f472b6">&gt;</text>
    <text x="290" y="150" font-family="monospace" font-size="14" fill="#e2e8f0">Software Developer</text>
    <text x="425" y="150" font-family="monospace" font-size="14" fill="#f472b6">&lt;/p&gt;</text>
    
    <text x="60" y="180" font-family="monospace" font-size="14" fill="#f472b6">&lt;button</text>
    <text x="115" y="180" font-family="monospace" font-size="14" fill="#38bdf8">class</text>
    <text x="155" y="180" font-family="monospace" font-size="14" fill="#f472b6">=</text>
    <text x="165" y="180" font-family="monospace" font-size="14" fill="#a5f3fc">"mt-4 px-4 py-2 bg-blue-500 text-white rounded hover:bg-blue-600"</text>
    <text x="540" y="180" font-family="monospace" font-size="14" fill="#f472b6">&gt;</text>
    <text x="550" y="180" font-family="monospace" font-size="14" fill="#e2e8f0">View Profile</text>
    <text x="335" y="210" font-family="monospace" font-size="14" fill="#f472b6">&lt;/button&gt;</text>
    
    <text x="40" y="240" font-family="monospace" font-size="14" fill="#f472b6">&lt;/div&gt;</text>
    <text x="20" y="270" font-family="monospace" font-size="14" fill="#f472b6">&lt;/div&gt;</text>
  </g>
  
  <!-- Componente Tailwind Renderizado -->
  <g transform="translate(350, 340)">
    <rect width="200" height="40" rx="20" fill="#3b82f6" />
    <text x="100" y="25" font-family="Arial, sans-serif" font-size="14" fill="white" text-anchor="middle">View Profile</text>
  </g>
  
  <!-- Texto Explicativo -->
  <text x="400" y="390" font-family="Arial, sans-serif" font-size="22" text-anchor="middle" fill="#06b6d4">Tailwind CSS</text>
</svg>