<svg width="800" height="400" viewBox="0 0 800 400" xmlns="http://www.w3.org/2000/svg">
  <!-- Fondo -->
  <rect width="800" height="400" fill="#f8f9fa" rx="10" ry="10"/>
  
  <!-- Elementos de herramientas -->
  <g fill="#8b5cf6" opacity="0.8">
    <!-- Terminal o área de comandos -->
    <rect x="50" y="80" width="500" height="150" rx="5" opacity="0.2"/>
    <rect x="70" y="100" width="460" height="12" rx="2" opacity="0.7"/>
    <rect x="70" y="125" width="300" height="12" rx="2" opacity="0.5"/>
    <rect x="70" y="150" width="400" height="12" rx="2" opacity="0.6"/>
    <rect x="70" y="175" width="350" height="12" rx="2" opacity="0.7"/>
    <rect x="70" y="200" width="250" height="12" rx="2" opacity="0.5"/>
    
    <!-- Panel de control o dashboard -->
    <rect x="580" y="80" width="170" height="150" rx="5" opacity="0.2"/>
    <rect x="600" y="100" width="130" height="20" rx="3" opacity="0.6"/>
    <rect x="600" y="130" width="130" height="8" rx="2" opacity="0.4"/>
    <rect x="600" y="145" width="90" height="8" rx="2" opacity="0.4"/>
    <rect x="600" y="160" width="110" height="8" rx="2" opacity="0.4"/>
    <rect x="600" y="180" width="130" height="30" rx="5" opacity="0.7"/>
    
    <!-- Iconos o controles -->
    <circle cx="100" cy="280" r="20" opacity="0.6"/>
    <circle cx="160" cy="280" r="20" opacity="0.7"/>
    <circle cx="220" cy="280" r="20" opacity="0.5"/>
    <circle cx="280" cy="280" r="20" opacity="0.6"/>
    <rect x="350" y="270" width="300" height="20" rx="5" opacity="0.2"/>
    <rect x="360" y="275" width="40" height="10" rx="2" opacity="0.7"/>
    <rect x="410" y="275" width="40" height="10" rx="2" opacity="0.7"/>
    <rect x="460" y="275" width="40" height="10" rx="2" opacity="0.7"/>
    <rect x="510" y="275" width="40" height="10" rx="2" opacity="0.7"/>
    <rect x="560" y="275" width="40" height="10" rx="2" opacity="0.7"/>
  </g>
  
  <!-- Texto Explicativo -->
  <text x="400" y="350" font-family="Arial, sans-serif" font-size="20" text-anchor="middle" fill="#8b5cf6">
    Development Tools
  </text>
</svg>